# xmcd
#
# Track frame offsets:
#	150
#	20152
#	35476
#	58678
#	73758
#	94985
#	110272
#	126126
#	138101
#	150490
#	169180
#	181522
#	195941
#	206336
#	230923
#	251000
#
# Disc length: 3588 seconds
#
# Revision: 1
# Processed by: cddbd v1.5.2PL0 Copyright (c) Steve Scherf et al.
# Submitted via: audiograbber 1.83.01
#
DISCID=d80e0210
DTITLE=Caller: R. Taylor - Barn Dance Party with Caller
DYEAR=1900
DGENRE=Western Dance
TTITLE0=Texan Reel - Fox and the Grapes - The Bob tailed 'oss - Snouts and Ears
TTITLE0=of America
TTITLE1=Grandfather's clock
TTITLE2=Stern Polka
TTITLE3=Chain a Lady - On the road to Boston - Goodbye girls I'm going to Bosto
TTITLE3=n
TTITLE4=Down Yonder
TTITLE5=Physical snob
TTITLE6=Gin I where the gadies runs - Donald wheres your trewes - The Duke of P
TTITLE6=erth
TTITLE7=The hop pickers feast
TTITLE8=Hoppin Satan - Hop up Susie - Devil among the tailors
TTITLE9=Burning bridges - Paddy Carey - Perfect cure
TTITLE10=Himazas
TTITLE11=The Blind - Sea Shanty - Blackthorn stick
TTITLE12=Black Joke
TTITLE13=Mutton chop - Old Doc Jones - Cindy Lou - Fire on the mountain - Cedar
TTITLE13=swamp
TTITLE14=La Russe - Cadum woods - Bluebell polka
TTITLE15=Miss Margaret Browns favourite - Oyster girl - Doc Byrds jig - Blackbe
TTITLE15=rry Quadrille
EXTD=
EXTT0=
EXTT1=
EXTT2=
EXTT3=
EXTT4=
EXTT5=
EXTT6=
EXTT7=
EXTT8=
EXTT9=
EXTT10=
EXTT11=
EXTT12=
EXTT13=
EXTT14=
EXTT15=
PLAYORDER=
